<?xml version="1.0" encoding="UTF-8" standalone="no"?>
<!DOCTYPE svg PUBLIC "-//W3C//DTD SVG 1.1//EN"
 "http://www.w3.org/Graphics/SVG/1.1/DTD/svg11.dtd">
<!-- Generated by graphviz version 2.49.0 (20210829.0051)
 -->
<!-- Title: snakemake_dag Pages: 1 -->
<svg width="514pt" height="908pt"
 viewBox="0.00 0.00 514.00 908.00" xmlns="http://www.w3.org/2000/svg" xmlns:xlink="http://www.w3.org/1999/xlink">
<g id="graph0" class="graph" transform="scale(1 1) rotate(0) translate(4 904)">
<title>snakemake_dag</title>
<polygon fill="white" stroke="transparent" points="-4,4 -4,-904 510,-904 510,4 -4,4"/>
<!-- 0 -->
<g id="node1" class="node">
<title>0</title>
<path fill="none" stroke="#56a9d8" stroke-width="2" d="M273,-36C273,-36 243,-36 243,-36 237,-36 231,-30 231,-24 231,-24 231,-12 231,-12 231,-6 237,0 243,0 243,0 273,0 273,0 279,0 285,-6 285,-12 285,-12 285,-24 285,-24 285,-30 279,-36 273,-36"/>
<text text-anchor="middle" x="258" y="-15.5" font-family="sans" font-size="10.00">all</text>
</g>
<!-- 1 -->
<g id="node2" class="node">
<title>1</title>
<path fill="none" stroke="#d88d56" stroke-width="2" d="M170,-900C170,-900 138,-900 138,-900 132,-900 126,-894 126,-888 126,-888 126,-876 126,-876 126,-870 132,-864 138,-864 138,-864 170,-864 170,-864 176,-864 182,-870 182,-876 182,-876 182,-888 182,-888 182,-894 176,-900 170,-900"/>
<text text-anchor="middle" x="154" y="-879.5" font-family="sans" font-size="10.00">symlink</text>
</g>
<!-- 1&#45;&gt;0 -->
<g id="edge5" class="edge">
<title>1&#45;&gt;0</title>
<path fill="none" stroke="grey" stroke-width="2" d="M125.75,-870.13C81.3,-850.95 0,-806.64 0,-739 0,-739 0,-739 0,-161 0,-117.07 8.87,-99.66 43,-72 94.39,-30.34 173.85,-20.74 220.41,-18.92"/>
<polygon fill="grey" stroke="grey" stroke-width="2" points="220.77,-22.41 230.67,-18.63 220.57,-15.42 220.77,-22.41"/>
</g>
<!-- 4 -->
<g id="node5" class="node">
<title>4</title>
<path fill="none" stroke="#61d856" stroke-width="2" d="M407.5,-828C407.5,-828 328.5,-828 328.5,-828 322.5,-828 316.5,-822 316.5,-816 316.5,-816 316.5,-804 316.5,-804 316.5,-798 322.5,-792 328.5,-792 328.5,-792 407.5,-792 407.5,-792 413.5,-792 419.5,-798 419.5,-804 419.5,-804 419.5,-816 419.5,-816 419.5,-822 413.5,-828 407.5,-828"/>
<text text-anchor="middle" x="368" y="-807.5" font-family="sans" font-size="10.00">subset_aligments</text>
</g>
<!-- 1&#45;&gt;4 -->
<g id="edge12" class="edge">
<title>1&#45;&gt;4</title>
<path fill="none" stroke="grey" stroke-width="2" d="M182.42,-871.7C213.99,-861.38 265.92,-844.39 306.83,-831.01"/>
<polygon fill="grey" stroke="grey" stroke-width="2" points="308.02,-834.3 316.44,-827.87 305.85,-827.65 308.02,-834.3"/>
</g>
<!-- 7 -->
<g id="node8" class="node">
<title>7</title>
<path fill="none" stroke="#56c1d8" stroke-width="2" d="M205,-612C205,-612 143,-612 143,-612 137,-612 131,-606 131,-600 131,-600 131,-588 131,-588 131,-582 137,-576 143,-576 143,-576 205,-576 205,-576 211,-576 217,-582 217,-588 217,-588 217,-600 217,-600 217,-606 211,-612 205,-612"/>
<text text-anchor="middle" x="174" y="-591.5" font-family="sans" font-size="10.00">stringtie_each</text>
</g>
<!-- 1&#45;&gt;7 -->
<g id="edge15" class="edge">
<title>1&#45;&gt;7</title>
<path fill="none" stroke="grey" stroke-width="2" d="M155.19,-863.97C158.53,-816.29 167.97,-681.18 172.07,-622.63"/>
<polygon fill="grey" stroke="grey" stroke-width="2" points="175.58,-622.53 172.79,-612.31 168.6,-622.04 175.58,-622.53"/>
</g>
<!-- 2 -->
<g id="node3" class="node">
<title>2</title>
<path fill="none" stroke="#d8ac56" stroke-width="2" d="M363.5,-756C363.5,-756 306.5,-756 306.5,-756 300.5,-756 294.5,-750 294.5,-744 294.5,-744 294.5,-732 294.5,-732 294.5,-726 300.5,-720 306.5,-720 306.5,-720 363.5,-720 363.5,-720 369.5,-720 375.5,-726 375.5,-732 375.5,-732 375.5,-744 375.5,-744 375.5,-750 369.5,-756 363.5,-756"/>
<text text-anchor="middle" x="335" y="-735.5" font-family="sans" font-size="10.00">stringtie_mix</text>
</g>
<!-- 2&#45;&gt;0 -->
<g id="edge8" class="edge">
<title>2&#45;&gt;0</title>
<path fill="none" stroke="grey" stroke-width="2" d="M375.52,-723.63C426.09,-704.09 506,-662.53 506,-595 506,-595 506,-595 506,-161 506,-64.97 364.22,-32.97 295.06,-23.08"/>
<polygon fill="grey" stroke="grey" stroke-width="2" points="295.39,-19.6 285.01,-21.73 294.46,-26.53 295.39,-19.6"/>
</g>
<!-- 6 -->
<g id="node7" class="node">
<title>6</title>
<path fill="none" stroke="#56d8d0" stroke-width="2" d="M349,-684C349,-684 255,-684 255,-684 249,-684 243,-678 243,-672 243,-672 243,-660 243,-660 243,-654 249,-648 255,-648 255,-648 349,-648 349,-648 355,-648 361,-654 361,-660 361,-660 361,-672 361,-672 361,-678 355,-684 349,-684"/>
<text text-anchor="middle" x="302" y="-663.5" font-family="sans" font-size="10.00">stringtie_merge_mix</text>
</g>
<!-- 2&#45;&gt;6 -->
<g id="edge14" class="edge">
<title>2&#45;&gt;6</title>
<path fill="none" stroke="grey" stroke-width="2" d="M326.84,-719.7C323.09,-711.73 318.55,-702.1 314.38,-693.26"/>
<polygon fill="grey" stroke="grey" stroke-width="2" points="317.49,-691.66 310.06,-684.1 311.16,-694.64 317.49,-691.66"/>
</g>
<!-- 3 -->
<g id="node4" class="node">
<title>3</title>
<path fill="none" stroke="#d85656" stroke-width="2" d="M286,-828C286,-828 194,-828 194,-828 188,-828 182,-822 182,-816 182,-816 182,-804 182,-804 182,-798 188,-792 194,-792 194,-792 286,-792 286,-792 292,-792 298,-798 298,-804 298,-804 298,-816 298,-816 298,-822 292,-828 286,-828"/>
<text text-anchor="middle" x="240" y="-807.5" font-family="sans" font-size="10.00">clean_transcriptome</text>
</g>
<!-- 3&#45;&gt;2 -->
<g id="edge11" class="edge">
<title>3&#45;&gt;2</title>
<path fill="none" stroke="grey" stroke-width="2" d="M263.48,-791.7C275.56,-782.8 290.45,-771.82 303.52,-762.2"/>
<polygon fill="grey" stroke="grey" stroke-width="2" points="305.81,-764.85 311.79,-756.1 301.66,-759.22 305.81,-764.85"/>
</g>
<!-- 4&#45;&gt;2 -->
<g id="edge10" class="edge">
<title>4&#45;&gt;2</title>
<path fill="none" stroke="grey" stroke-width="2" d="M359.84,-791.7C356.09,-783.73 351.55,-774.1 347.38,-765.26"/>
<polygon fill="grey" stroke="grey" stroke-width="2" points="350.49,-763.66 343.06,-756.1 344.16,-766.64 350.49,-763.66"/>
</g>
<!-- 5 -->
<g id="node6" class="node">
<title>5</title>
<path fill="none" stroke="#5673d8" stroke-width="2" d="M421,-900C421,-900 315,-900 315,-900 309,-900 303,-894 303,-888 303,-888 303,-876 303,-876 303,-870 309,-864 315,-864 315,-864 421,-864 421,-864 427,-864 433,-870 433,-876 433,-876 433,-888 433,-888 433,-894 427,-900 421,-900"/>
<text text-anchor="middle" x="368" y="-879.5" font-family="sans" font-size="10.00">create_selected_region</text>
</g>
<!-- 5&#45;&gt;4 -->
<g id="edge13" class="edge">
<title>5&#45;&gt;4</title>
<path fill="none" stroke="grey" stroke-width="2" d="M368,-863.7C368,-855.98 368,-846.71 368,-838.11"/>
<polygon fill="grey" stroke="grey" stroke-width="2" points="371.5,-838.1 368,-828.1 364.5,-838.1 371.5,-838.1"/>
</g>
<!-- 6&#45;&gt;0 -->
<g id="edge2" class="edge">
<title>6&#45;&gt;0</title>
<path fill="none" stroke="grey" stroke-width="2" d="M349.57,-647.84C398.62,-626.73 468,-585.77 468,-523 468,-523 468,-523 468,-161 468,-78.42 355.17,-40.61 294.92,-26.3"/>
<polygon fill="grey" stroke="grey" stroke-width="2" points="295.55,-22.86 285.02,-24.05 294,-29.68 295.55,-22.86"/>
</g>
<!-- 6&#45;&gt;7 -->
<g id="edge16" class="edge">
<title>6&#45;&gt;7</title>
<path fill="none" stroke="grey" stroke-width="2" d="M270.69,-647.88C253.8,-638.64 232.75,-627.13 214.62,-617.21"/>
<polygon fill="grey" stroke="grey" stroke-width="2" points="215.89,-613.92 205.43,-612.19 212.53,-620.06 215.89,-613.92"/>
</g>
<!-- 8 -->
<g id="node9" class="node">
<title>8</title>
<path fill="none" stroke="#b6d856" stroke-width="2" d="M297,-540C297,-540 199,-540 199,-540 193,-540 187,-534 187,-528 187,-528 187,-516 187,-516 187,-510 193,-504 199,-504 199,-504 297,-504 297,-504 303,-504 309,-510 309,-516 309,-516 309,-528 309,-528 309,-534 303,-540 297,-540"/>
<text text-anchor="middle" x="248" y="-519.5" font-family="sans" font-size="10.00">stringtie_merge_each</text>
</g>
<!-- 6&#45;&gt;8 -->
<g id="edge17" class="edge">
<title>6&#45;&gt;8</title>
<path fill="none" stroke="grey" stroke-width="2" d="M295.49,-647.87C286.2,-623.46 269.08,-578.43 258.13,-549.64"/>
<polygon fill="grey" stroke="grey" stroke-width="2" points="261.36,-548.29 254.54,-540.19 254.82,-550.78 261.36,-548.29"/>
</g>
<!-- 7&#45;&gt;0 -->
<g id="edge4" class="edge">
<title>7&#45;&gt;0</title>
<path fill="none" stroke="grey" stroke-width="2" d="M139.33,-575.93C99.04,-553.38 38,-509.54 38,-451 38,-451 38,-451 38,-161 38,-117.99 43.82,-100.53 76,-72 116.58,-36.03 180.32,-24.41 220.6,-20.69"/>
<polygon fill="grey" stroke="grey" stroke-width="2" points="221.11,-24.16 230.8,-19.87 220.55,-17.18 221.11,-24.16"/>
</g>
<!-- 7&#45;&gt;8 -->
<g id="edge18" class="edge">
<title>7&#45;&gt;8</title>
<path fill="none" stroke="grey" stroke-width="2" d="M192.29,-575.7C201.43,-567.05 212.64,-556.45 222.6,-547.03"/>
<polygon fill="grey" stroke="grey" stroke-width="2" points="225.06,-549.52 229.92,-540.1 220.25,-544.43 225.06,-549.52"/>
</g>
<!-- 8&#45;&gt;0 -->
<g id="edge1" class="edge">
<title>8&#45;&gt;0</title>
<path fill="none" stroke="grey" stroke-width="2" d="M197.79,-503.96C147.02,-483.17 76,-442.7 76,-379 76,-379 76,-379 76,-161 76,-119.79 73.5,-101.76 102,-72 133.2,-39.42 185.15,-26.87 220.45,-22.03"/>
<polygon fill="grey" stroke="grey" stroke-width="2" points="221.33,-25.45 230.83,-20.77 220.48,-18.5 221.33,-25.45"/>
</g>
<!-- 13 -->
<g id="node14" class="node">
<title>13</title>
<path fill="none" stroke="#97d856" stroke-width="2" d="M293,-468C293,-468 203,-468 203,-468 197,-468 191,-462 191,-456 191,-456 191,-444 191,-444 191,-438 197,-432 203,-432 203,-432 293,-432 293,-432 299,-432 305,-438 305,-444 305,-444 305,-456 305,-456 305,-462 299,-468 293,-468"/>
<text text-anchor="middle" x="248" y="-447.5" font-family="sans" font-size="10.00">build_transcriptome</text>
</g>
<!-- 8&#45;&gt;13 -->
<g id="edge23" class="edge">
<title>8&#45;&gt;13</title>
<path fill="none" stroke="grey" stroke-width="2" d="M248,-503.7C248,-495.98 248,-486.71 248,-478.11"/>
<polygon fill="grey" stroke="grey" stroke-width="2" points="251.5,-478.1 248,-468.1 244.5,-478.1 251.5,-478.1"/>
</g>
<!-- 16 -->
<g id="node17" class="node">
<title>16</title>
<path fill="none" stroke="#d87556" stroke-width="2" d="M408.5,-396C408.5,-396 369.5,-396 369.5,-396 363.5,-396 357.5,-390 357.5,-384 357.5,-384 357.5,-372 357.5,-372 357.5,-366 363.5,-360 369.5,-360 369.5,-360 408.5,-360 408.5,-360 414.5,-360 420.5,-366 420.5,-372 420.5,-372 420.5,-384 420.5,-384 420.5,-390 414.5,-396 408.5,-396"/>
<text text-anchor="middle" x="389" y="-375.5" font-family="sans" font-size="10.00">gtf_to_gff</text>
</g>
<!-- 8&#45;&gt;16 -->
<g id="edge28" class="edge">
<title>8&#45;&gt;16</title>
<path fill="none" stroke="grey" stroke-width="2" d="M271.53,-503.89C284.56,-493.98 300.75,-480.94 314,-468 334.56,-447.92 355.42,-422.68 369.91,-404.22"/>
<polygon fill="grey" stroke="grey" stroke-width="2" points="372.72,-406.3 376.09,-396.25 367.19,-402 372.72,-406.3"/>
</g>
<!-- 9 -->
<g id="node10" class="node">
<title>9</title>
<path fill="none" stroke="#d8c356" stroke-width="2" d="M185,-108C185,-108 123,-108 123,-108 117,-108 111,-102 111,-96 111,-96 111,-84 111,-84 111,-78 117,-72 123,-72 123,-72 185,-72 185,-72 191,-72 197,-78 197,-84 197,-84 197,-96 197,-96 197,-102 191,-108 185,-108"/>
<text text-anchor="middle" x="154" y="-87.5" font-family="sans" font-size="10.00">salmon_quant</text>
</g>
<!-- 9&#45;&gt;0 -->
<g id="edge9" class="edge">
<title>9&#45;&gt;0</title>
<path fill="none" stroke="grey" stroke-width="2" d="M179.44,-71.88C192.79,-62.89 209.32,-51.76 223.78,-42.03"/>
<polygon fill="grey" stroke="grey" stroke-width="2" points="226.12,-44.68 232.46,-36.19 222.21,-38.87 226.12,-44.68"/>
</g>
<!-- 10 -->
<g id="node11" class="node">
<title>10</title>
<path fill="none" stroke="#56d8b9" stroke-width="2" d="M190.5,-252C190.5,-252 129.5,-252 129.5,-252 123.5,-252 117.5,-246 117.5,-240 117.5,-240 117.5,-228 117.5,-228 117.5,-222 123.5,-216 129.5,-216 129.5,-216 190.5,-216 190.5,-216 196.5,-216 202.5,-222 202.5,-228 202.5,-228 202.5,-240 202.5,-240 202.5,-246 196.5,-252 190.5,-252"/>
<text text-anchor="middle" x="160" y="-231.5" font-family="sans" font-size="10.00">salmon_index</text>
</g>
<!-- 10&#45;&gt;9 -->
<g id="edge19" class="edge">
<title>10&#45;&gt;9</title>
<path fill="none" stroke="grey" stroke-width="2" d="M159.28,-215.87C158.25,-191.67 156.38,-147.21 155.16,-118.39"/>
<polygon fill="grey" stroke="grey" stroke-width="2" points="158.65,-118.03 154.73,-108.19 151.65,-118.33 158.65,-118.03"/>
</g>
<!-- 11 -->
<g id="node12" class="node">
<title>11</title>
<path fill="none" stroke="#56d89a" stroke-width="2" d="M208,-324C208,-324 116,-324 116,-324 110,-324 104,-318 104,-312 104,-312 104,-300 104,-300 104,-294 110,-288 116,-288 116,-288 208,-288 208,-288 214,-288 220,-294 220,-300 220,-300 220,-312 220,-312 220,-318 214,-324 208,-324"/>
<text text-anchor="middle" x="162" y="-303.5" font-family="sans" font-size="10.00">salmon_build_decoy</text>
</g>
<!-- 11&#45;&gt;10 -->
<g id="edge20" class="edge">
<title>11&#45;&gt;10</title>
<path fill="none" stroke="grey" stroke-width="2" d="M161.51,-287.7C161.29,-279.98 161.02,-270.71 160.77,-262.11"/>
<polygon fill="grey" stroke="grey" stroke-width="2" points="164.27,-262 160.49,-252.1 157.28,-262.2 164.27,-262"/>
</g>
<!-- 12 -->
<g id="node13" class="node">
<title>12</title>
<path fill="none" stroke="#568ad8" stroke-width="2" d="M272.5,-396C272.5,-396 223.5,-396 223.5,-396 217.5,-396 211.5,-390 211.5,-384 211.5,-384 211.5,-372 211.5,-372 211.5,-366 217.5,-360 223.5,-360 223.5,-360 272.5,-360 272.5,-360 278.5,-360 284.5,-366 284.5,-372 284.5,-372 284.5,-384 284.5,-384 284.5,-390 278.5,-396 272.5,-396"/>
<text text-anchor="middle" x="248" y="-375.5" font-family="sans" font-size="10.00">clean_fasta</text>
</g>
<!-- 12&#45;&gt;11 -->
<g id="edge21" class="edge">
<title>12&#45;&gt;11</title>
<path fill="none" stroke="grey" stroke-width="2" d="M226.74,-359.7C215.91,-350.88 202.58,-340.03 190.84,-330.47"/>
<polygon fill="grey" stroke="grey" stroke-width="2" points="192.98,-327.7 183.01,-324.1 188.56,-333.13 192.98,-327.7"/>
</g>
<!-- 14 -->
<g id="node15" class="node">
<title>14</title>
<path fill="none" stroke="#80d856" stroke-width="2" d="M389.5,-324C389.5,-324 288.5,-324 288.5,-324 282.5,-324 276.5,-318 276.5,-312 276.5,-312 276.5,-300 276.5,-300 276.5,-294 282.5,-288 288.5,-288 288.5,-288 389.5,-288 389.5,-288 395.5,-288 401.5,-294 401.5,-300 401.5,-300 401.5,-312 401.5,-312 401.5,-318 395.5,-324 389.5,-324"/>
<text text-anchor="middle" x="339" y="-303.5" font-family="sans" font-size="10.00">transdecoder_longorfs</text>
</g>
<!-- 12&#45;&gt;14 -->
<g id="edge24" class="edge">
<title>12&#45;&gt;14</title>
<path fill="none" stroke="grey" stroke-width="2" d="M270.49,-359.7C281.96,-350.88 296.06,-340.03 308.48,-330.47"/>
<polygon fill="grey" stroke="grey" stroke-width="2" points="310.97,-332.98 316.76,-324.1 306.7,-327.43 310.97,-332.98"/>
</g>
<!-- 15 -->
<g id="node16" class="node">
<title>15</title>
<path fill="none" stroke="#56d863" stroke-width="2" d="M326.5,-252C326.5,-252 257.5,-252 257.5,-252 251.5,-252 245.5,-246 245.5,-240 245.5,-240 245.5,-228 245.5,-228 245.5,-222 251.5,-216 257.5,-216 257.5,-216 326.5,-216 326.5,-216 332.5,-216 338.5,-222 338.5,-228 338.5,-228 338.5,-240 338.5,-240 338.5,-246 332.5,-252 326.5,-252"/>
<text text-anchor="middle" x="292" y="-231.5" font-family="sans" font-size="10.00">cds_to_genome</text>
</g>
<!-- 12&#45;&gt;15 -->
<g id="edge26" class="edge">
<title>12&#45;&gt;15</title>
<path fill="none" stroke="grey" stroke-width="2" d="M250.44,-359.96C253.31,-341.81 258.76,-312.4 267,-288 269.99,-279.13 274.06,-269.79 278.05,-261.47"/>
<polygon fill="grey" stroke="grey" stroke-width="2" points="281.32,-262.76 282.62,-252.25 275.05,-259.65 281.32,-262.76"/>
</g>
<!-- 13&#45;&gt;12 -->
<g id="edge22" class="edge">
<title>13&#45;&gt;12</title>
<path fill="none" stroke="grey" stroke-width="2" d="M248,-431.7C248,-423.98 248,-414.71 248,-406.11"/>
<polygon fill="grey" stroke="grey" stroke-width="2" points="251.5,-406.1 248,-396.1 244.5,-406.1 251.5,-406.1"/>
</g>
<!-- 14&#45;&gt;0 -->
<g id="edge6" class="edge">
<title>14&#45;&gt;0</title>
<path fill="none" stroke="grey" stroke-width="2" d="M343.12,-287.71C351.83,-246.91 368.14,-142.72 327,-72 319.1,-58.42 306.23,-47.13 293.73,-38.5"/>
<polygon fill="grey" stroke="grey" stroke-width="2" points="295.5,-35.48 285.21,-32.97 291.69,-41.35 295.5,-35.48"/>
</g>
<!-- 14&#45;&gt;15 -->
<g id="edge25" class="edge">
<title>14&#45;&gt;15</title>
<path fill="none" stroke="grey" stroke-width="2" d="M327.38,-287.7C321.86,-279.47 315.15,-269.48 309.07,-260.42"/>
<polygon fill="grey" stroke="grey" stroke-width="2" points="311.96,-258.46 303.48,-252.1 306.15,-262.36 311.96,-258.46"/>
</g>
<!-- 15&#45;&gt;0 -->
<g id="edge3" class="edge">
<title>15&#45;&gt;0</title>
<path fill="none" stroke="grey" stroke-width="2" d="M298.96,-215.81C310.13,-185.54 328.86,-121.27 309,-72 304.65,-61.21 296.94,-51.39 288.81,-43.21"/>
<polygon fill="grey" stroke="grey" stroke-width="2" points="291,-40.46 281.3,-36.18 286.21,-45.57 291,-40.46"/>
</g>
<!-- 18 -->
<g id="node19" class="node">
<title>18</title>
<path fill="none" stroke="#ced856" stroke-width="2" d="M286.5,-180C286.5,-180 233.5,-180 233.5,-180 227.5,-180 221.5,-174 221.5,-168 221.5,-168 221.5,-156 221.5,-156 221.5,-150 227.5,-144 233.5,-144 233.5,-144 286.5,-144 286.5,-144 292.5,-144 298.5,-150 298.5,-156 298.5,-156 298.5,-168 298.5,-168 298.5,-174 292.5,-180 286.5,-180"/>
<text text-anchor="middle" x="260" y="-159.5" font-family="sans" font-size="10.00">extract_CDS</text>
</g>
<!-- 15&#45;&gt;18 -->
<g id="edge30" class="edge">
<title>15&#45;&gt;18</title>
<path fill="none" stroke="grey" stroke-width="2" d="M284.09,-215.7C280.45,-207.73 276.05,-198.1 272.01,-189.26"/>
<polygon fill="grey" stroke="grey" stroke-width="2" points="275.16,-187.74 267.82,-180.1 268.79,-190.65 275.16,-187.74"/>
</g>
<!-- 16&#45;&gt;15 -->
<g id="edge27" class="edge">
<title>16&#45;&gt;15</title>
<path fill="none" stroke="grey" stroke-width="2" d="M400.27,-359.94C411.24,-340.98 424.32,-310.13 410,-288 396.23,-266.72 371.66,-253.9 348.5,-246.22"/>
<polygon fill="grey" stroke="grey" stroke-width="2" points="349.27,-242.8 338.69,-243.23 347.23,-249.49 349.27,-242.8"/>
</g>
<!-- 17 -->
<g id="node18" class="node">
<title>17</title>
<path fill="none" stroke="#56d882" stroke-width="2" d="M288.5,-108C288.5,-108 227.5,-108 227.5,-108 221.5,-108 215.5,-102 215.5,-96 215.5,-96 215.5,-84 215.5,-84 215.5,-78 221.5,-72 227.5,-72 227.5,-72 288.5,-72 288.5,-72 294.5,-72 300.5,-78 300.5,-84 300.5,-84 300.5,-96 300.5,-96 300.5,-102 294.5,-108 288.5,-108"/>
<text text-anchor="middle" x="258" y="-87.5" font-family="sans" font-size="10.00">compare_CDS</text>
</g>
<!-- 17&#45;&gt;0 -->
<g id="edge7" class="edge">
<title>17&#45;&gt;0</title>
<path fill="none" stroke="grey" stroke-width="2" d="M258,-71.7C258,-63.98 258,-54.71 258,-46.11"/>
<polygon fill="grey" stroke="grey" stroke-width="2" points="261.5,-46.1 258,-36.1 254.5,-46.1 261.5,-46.1"/>
</g>
<!-- 18&#45;&gt;17 -->
<g id="edge29" class="edge">
<title>18&#45;&gt;17</title>
<path fill="none" stroke="grey" stroke-width="2" d="M259.51,-143.7C259.29,-135.98 259.02,-126.71 258.77,-118.11"/>
<polygon fill="grey" stroke="grey" stroke-width="2" points="262.27,-118 258.49,-108.1 255.28,-118.2 262.27,-118"/>
</g>
</g>
</svg>
